<svg width="128" height="128" viewBox="0 0 128 128" xmlns="http://www.w3.org/2000/svg">
  <defs>
    <linearGradient id="grad1" x1="0%" y1="0%" x2="100%" y2="100%">
      <stop offset="0%" style="stop-color:#4285f4;stop-opacity:1" />
      <stop offset="100%" style="stop-color:#1a73e8;stop-opacity:1" />
    </linearGradient>
    <linearGradient id="grad2" x1="0%" y1="0%" x2="100%" y2="100%">
      <stop offset="0%" style="stop-color:#34a853;stop-opacity:1" />
      <stop offset="100%" style="stop-color:#137333;stop-opacity:1" />
    </linearGradient>
  </defs>
  <rect width="128" height="128" rx="20" fill="url(#grad1)"/>
  
  <!-- Document lines -->
  <rect x="20" y="35" width="80" height="6" rx="3" fill="white"/>
  <rect x="20" y="48" width="80" height="6" rx="3" fill="white"/>
  <rect x="20" y="61" width="65" height="6" rx="3" fill="white"/>
  <rect x="20" y="74" width="70" height="6" rx="3" fill="white"/>
  <rect x="20" y="87" width="55" height="6" rx="3" fill="white" opacity="0.8"/>
  <rect x="20" y="100" width="45" height="6" rx="3" fill="white" opacity="0.6"/>
  
  <!-- Activity indicator circle -->
  <circle cx="100" cy="28" r="16" fill="url(#grad2)"/>
  
  <!-- Checkmark -->
  <path d="M92 26l6 6 10-10-3-3-7 7-3-3-3 3z" fill="white" stroke="white" stroke-width="1"/>
  
  <!-- Refresh arrows -->
  <path d="M75 20c0-8 6-14 14-14s14 6 14 14" stroke="white" stroke-width="2" fill="none" opacity="0.7"/>
  <path d="M85 18l-2 4 4 2" fill="white" opacity="0.7"/>
  
  <!-- Activity dots -->
  <circle cx="110" cy="45" r="2" fill="#fbbc04"/>
  <circle cx="110" cy="52" r="2" fill="#fbbc04" opacity="0.7"/>
  <circle cx="110" cy="59" r="2" fill="#fbbc04" opacity="0.4"/>
</svg>